%TF.GenerationSoftware,KiCad,Pcbnew,9.0.0*%
%TF.CreationDate,2026-01-30T14:08:11-05:00*%
%TF.ProjectId,Proprietary_RJ45,50726f70-7269-4657-9461-72795f524a34,rev?*%
%TF.SameCoordinates,Original*%
%TF.FileFunction,Legend,Top*%
%TF.FilePolarity,Positive*%
%FSLAX46Y46*%
G04 Gerber Fmt 4.6, Leading zero omitted, Abs format (unit mm)*
G04 Created by KiCad (PCBNEW 9.0.0) date 2026-01-30 14:08:11*
%MOMM*%
%LPD*%
G01*
G04 APERTURE LIST*
%ADD10C,0.100000*%
%ADD11C,0.150000*%
%ADD12C,0.152400*%
%ADD13C,0.508000*%
G04 APERTURE END LIST*
D10*
X108303884Y-79122419D02*
X108303884Y-78122419D01*
X108780074Y-78455752D02*
X108780074Y-79122419D01*
X108780074Y-78550990D02*
X108827693Y-78503371D01*
X108827693Y-78503371D02*
X108922931Y-78455752D01*
X108922931Y-78455752D02*
X109065788Y-78455752D01*
X109065788Y-78455752D02*
X109161026Y-78503371D01*
X109161026Y-78503371D02*
X109208645Y-78598609D01*
X109208645Y-78598609D02*
X109208645Y-79122419D01*
X145244360Y-78122419D02*
X145434836Y-78122419D01*
X145434836Y-78122419D02*
X145530074Y-78170038D01*
X145530074Y-78170038D02*
X145625312Y-78265276D01*
X145625312Y-78265276D02*
X145672931Y-78455752D01*
X145672931Y-78455752D02*
X145672931Y-78789085D01*
X145672931Y-78789085D02*
X145625312Y-78979561D01*
X145625312Y-78979561D02*
X145530074Y-79074800D01*
X145530074Y-79074800D02*
X145434836Y-79122419D01*
X145434836Y-79122419D02*
X145244360Y-79122419D01*
X145244360Y-79122419D02*
X145149122Y-79074800D01*
X145149122Y-79074800D02*
X145053884Y-78979561D01*
X145053884Y-78979561D02*
X145006265Y-78789085D01*
X145006265Y-78789085D02*
X145006265Y-78455752D01*
X145006265Y-78455752D02*
X145053884Y-78265276D01*
X145053884Y-78265276D02*
X145149122Y-78170038D01*
X145149122Y-78170038D02*
X145244360Y-78122419D01*
X146530074Y-78455752D02*
X146530074Y-79122419D01*
X146101503Y-78455752D02*
X146101503Y-78979561D01*
X146101503Y-78979561D02*
X146149122Y-79074800D01*
X146149122Y-79074800D02*
X146244360Y-79122419D01*
X146244360Y-79122419D02*
X146387217Y-79122419D01*
X146387217Y-79122419D02*
X146482455Y-79074800D01*
X146482455Y-79074800D02*
X146530074Y-79027180D01*
X146863408Y-78455752D02*
X147244360Y-78455752D01*
X147006265Y-78122419D02*
X147006265Y-78979561D01*
X147006265Y-78979561D02*
X147053884Y-79074800D01*
X147053884Y-79074800D02*
X147149122Y-79122419D01*
X147149122Y-79122419D02*
X147244360Y-79122419D01*
D11*
X127333333Y-98295180D02*
X127333333Y-97580895D01*
X127333333Y-97580895D02*
X127380952Y-97438038D01*
X127380952Y-97438038D02*
X127476190Y-97342800D01*
X127476190Y-97342800D02*
X127619047Y-97295180D01*
X127619047Y-97295180D02*
X127714285Y-97295180D01*
X126904761Y-98199942D02*
X126857142Y-98247561D01*
X126857142Y-98247561D02*
X126761904Y-98295180D01*
X126761904Y-98295180D02*
X126523809Y-98295180D01*
X126523809Y-98295180D02*
X126428571Y-98247561D01*
X126428571Y-98247561D02*
X126380952Y-98199942D01*
X126380952Y-98199942D02*
X126333333Y-98104704D01*
X126333333Y-98104704D02*
X126333333Y-98009466D01*
X126333333Y-98009466D02*
X126380952Y-97866609D01*
X126380952Y-97866609D02*
X126952380Y-97295180D01*
X126952380Y-97295180D02*
X126333333Y-97295180D01*
X121045180Y-88394716D02*
X120330895Y-88394716D01*
X120330895Y-88394716D02*
X120188038Y-88347097D01*
X120188038Y-88347097D02*
X120092800Y-88251859D01*
X120092800Y-88251859D02*
X120045180Y-88109002D01*
X120045180Y-88109002D02*
X120045180Y-88013764D01*
X120045180Y-89394716D02*
X120045180Y-88823288D01*
X120045180Y-89109002D02*
X121045180Y-89109002D01*
X121045180Y-89109002D02*
X120902323Y-89013764D01*
X120902323Y-89013764D02*
X120807085Y-88918526D01*
X120807085Y-88918526D02*
X120759466Y-88823288D01*
X133954819Y-88833333D02*
X134669104Y-88833333D01*
X134669104Y-88833333D02*
X134811961Y-88880952D01*
X134811961Y-88880952D02*
X134907200Y-88976190D01*
X134907200Y-88976190D02*
X134954819Y-89119047D01*
X134954819Y-89119047D02*
X134954819Y-89214285D01*
X133954819Y-88452380D02*
X133954819Y-87833333D01*
X133954819Y-87833333D02*
X134335771Y-88166666D01*
X134335771Y-88166666D02*
X134335771Y-88023809D01*
X134335771Y-88023809D02*
X134383390Y-87928571D01*
X134383390Y-87928571D02*
X134431009Y-87880952D01*
X134431009Y-87880952D02*
X134526247Y-87833333D01*
X134526247Y-87833333D02*
X134764342Y-87833333D01*
X134764342Y-87833333D02*
X134859580Y-87880952D01*
X134859580Y-87880952D02*
X134907200Y-87928571D01*
X134907200Y-87928571D02*
X134954819Y-88023809D01*
X134954819Y-88023809D02*
X134954819Y-88309523D01*
X134954819Y-88309523D02*
X134907200Y-88404761D01*
X134907200Y-88404761D02*
X134859580Y-88452380D01*
D12*
%TO.C,J2*%
X122207401Y-100434008D02*
X122207401Y-104737200D01*
X122207401Y-104737200D02*
X132113401Y-104737200D01*
X130892329Y-98920600D02*
X123428472Y-98920600D01*
X132113401Y-104737200D02*
X132113401Y-100434008D01*
D13*
X121365002Y-101510201D02*
G75*
G02*
X120603002Y-101510201I-381000J0D01*
G01*
X120603002Y-101510201D02*
G75*
G02*
X121365002Y-101510201I381000J0D01*
G01*
D12*
%TO.C,J1*%
X97578000Y-80536550D02*
X97578000Y-96919550D01*
X97578000Y-96919550D02*
X103385504Y-96919550D01*
X103385504Y-80536550D02*
X97578000Y-80536550D01*
X105484495Y-96919550D02*
X119422000Y-96919550D01*
X119422000Y-80536550D02*
X105484495Y-80536550D01*
X119422000Y-96919550D02*
X119422000Y-80536550D01*
D13*
X113326000Y-97554550D02*
G75*
G02*
X112564000Y-97554550I-381000J0D01*
G01*
X112564000Y-97554550D02*
G75*
G02*
X113326000Y-97554550I381000J0D01*
G01*
D12*
%TO.C,J3*%
X135578000Y-80580450D02*
X135578000Y-96963450D01*
X135578000Y-96963450D02*
X149515505Y-96963450D01*
X149515505Y-80580450D02*
X135578000Y-80580450D01*
X151614496Y-96963450D02*
X157422000Y-96963450D01*
X157422000Y-80580450D02*
X151614496Y-80580450D01*
X157422000Y-96963450D02*
X157422000Y-80580450D01*
D13*
X142436000Y-79945450D02*
G75*
G02*
X141674000Y-79945450I-381000J0D01*
G01*
X141674000Y-79945450D02*
G75*
G02*
X142436000Y-79945450I381000J0D01*
G01*
%TD*%
M02*
